<?xml version="1.0" encoding="UTF-8" standalone="no"?>
<!-- Created with Inkscape (http://www.inkscape.org/) -->

<svg
   xmlns:dc="http://purl.org/dc/elements/1.1/"
   xmlns:cc="http://creativecommons.org/ns#"
   xmlns:rdf="http://www.w3.org/1999/02/22-rdf-syntax-ns#"
   xmlns:svg="http://www.w3.org/2000/svg"
   xmlns="http://www.w3.org/2000/svg"
   xmlns:sodipodi="http://sodipodi.sourceforge.net/DTD/sodipodi-0.dtd"
   xmlns:inkscape="http://www.inkscape.org/namespaces/inkscape"
   width="198"
   height="198"
   id="svg2"
   version="1.1"
   inkscape:version="0.48.1 r9760"
   sodipodi:docname="libravatar_logo.svg"
   inkscape:export-filename="/home/francois/papillon48.png"
   inkscape:export-xdpi="21.82"
   inkscape:export-ydpi="21.82">
  <defs
     id="defs4">
    <inkscape:perspective
       sodipodi:type="inkscape:persp3d"
       inkscape:vp_x="0 : 526.18109 : 1"
       inkscape:vp_y="0 : 1000 : 0"
       inkscape:vp_z="744.09448 : 526.18109 : 1"
       inkscape:persp3d-origin="372.04724 : 350.78739 : 1"
       id="perspective10" />
    <inkscape:perspective
       id="perspective3625"
       inkscape:persp3d-origin="0.5 : 0.33333333 : 1"
       inkscape:vp_z="1 : 0.5 : 1"
       inkscape:vp_y="0 : 1000 : 0"
       inkscape:vp_x="0 : 0.5 : 1"
       sodipodi:type="inkscape:persp3d" />
    <inkscape:perspective
       id="perspective3650"
       inkscape:persp3d-origin="0.5 : 0.33333333 : 1"
       inkscape:vp_z="1 : 0.5 : 1"
       inkscape:vp_y="0 : 1000 : 0"
       inkscape:vp_x="0 : 0.5 : 1"
       sodipodi:type="inkscape:persp3d" />
  </defs>
  <sodipodi:namedview
     id="base"
     pagecolor="#ffffff"
     bordercolor="#666666"
     borderopacity="1.0"
     inkscape:pageopacity="0.0"
     inkscape:pageshadow="2"
     inkscape:zoom="2.16"
     inkscape:cx="78.9891"
     inkscape:cy="99.71318"
     inkscape:document-units="px"
     inkscape:current-layer="layer1"
     showgrid="false"
     inkscape:window-width="1280"
     inkscape:window-height="781"
     inkscape:window-x="0"
     inkscape:window-y="0"
     inkscape:window-maximized="0"
     inkscape:snap-bbox="true"
     inkscape:snap-global="true" />
  <metadata
     id="metadata7">
    <rdf:RDF>
      <cc:Work
         rdf:about="">
        <dc:format>image/svg+xml</dc:format>
        <dc:type
           rdf:resource="http://purl.org/dc/dcmitype/StillImage" />
        <dc:title />
      </cc:Work>
    </rdf:RDF>
  </metadata>
  <g
     inkscape:label="Calque 1"
     inkscape:groupmode="layer"
     id="layer1"
     transform="translate(-278.31427,-410.59064)">
    <rect
       style="fill:#f9711f;fill-opacity:1;stroke:none"
       id="rect3625"
       width="198"
       height="198"
       x="278.31427"
       y="410.59064" />
      <path
         style="font-size:144px;font-family:Liberation Serif;-inkscape-font-specification:Liberation Serif;fill:#ffffff"
         d="M 65.5625 32.96875 C 61.53129 32.96885 57.95317 33.53135 54.8125 34.65625 C 51.62505 35.78135 48.96881 37.3751 46.8125 39.4375 C 44.60944 41.50009 42.93756 44.03134 41.8125 47.03125 C 40.64068 50.03133 40.06257 53.3907 40.0625 57.09375 C 40.06257 60.60945 40.53132 63.71882 41.46875 66.4375 C 42.40631 69.15631 43.65631 71.50006 45.25 73.46875 C 46.79693 75.39068 48.59381 76.9688 50.65625 78.1875 C 52.67193 79.4063 54.79692 80.25005 57 80.71875 L 57 81.40625 C 53.85942 82.06255 51.03131 83.04693 48.5 84.3125 C 45.96881 85.57818 43.81256 87.2188 42.03125 89.28125 C 40.25007 91.29692 38.87506 93.7813 37.9375 96.6875 C 37.00007 99.54691 36.53132 102.92191 36.53125 106.8125 C 36.53132 111.50003 37.17194 115.64064 38.4375 119.25 C 39.70318 122.85938 41.50006 125.87501 43.84375 128.3125 C 46.18756 130.75 49.07818 132.60937 52.5 133.875 C 55.92192 135.14062 59.76566 135.78125 64.03125 135.78125 C 68.20316 135.78125 71.84379 135.35938 74.9375 134.5625 C 77.9844 133.8125 80.56252 132.96875 82.71875 132.03125 L 82.71875 165.03125 L 94.40625 165.03125 L 94.40625 130.34375 L 103.59375 130.34375 L 103.59375 165.03125 L 115.28125 165.03125 L 115.28125 132.03125 C 117.43748 132.96875 120.0156 133.8125 123.0625 134.5625 C 126.15621 135.35938 129.79684 135.78125 133.96875 135.78125 C 138.23433 135.78125 142.07808 135.14062 145.5 133.875 C 148.92182 132.60937 151.81244 130.75 154.15625 128.3125 C 156.49994 125.87501 158.29681 122.85938 159.5625 119.25 C 160.82806 115.64064 161.46868 111.50003 161.46875 106.8125 C 161.46868 102.92191 160.99993 99.54691 160.0625 96.6875 C 159.12494 93.7813 157.74993 91.29692 155.96875 89.28125 C 154.18744 87.2188 152.03119 85.57818 149.5 84.3125 C 146.96869 83.04693 144.14058 82.06255 141 81.40625 L 141 80.71875 C 143.20308 80.25005 145.32807 79.4063 147.34375 78.1875 C 149.40619 76.9688 151.20307 75.39068 152.75 73.46875 C 154.34369 71.50006 155.59368 69.15631 156.53125 66.4375 C 157.46868 63.71882 157.93743 60.60945 157.9375 57.09375 C 157.93743 53.3907 157.35932 50.03133 156.1875 47.03125 C 155.06244 44.03134 153.39056 41.50009 151.1875 39.4375 C 149.03119 37.3751 146.37495 35.78135 143.1875 34.65625 C 140.04683 33.53135 136.46871 32.96885 132.4375 32.96875 C 128.17184 32.96885 124.24997 33.59386 120.6875 34.8125 C 117.17185 35.98448 114.15623 37.95323 111.625 40.71875 C 109.09373 43.4376 107.12499 47.03134 105.71875 51.53125 C 104.60312 55.101301 103.91806 59.352464 103.6875 64.25 L 94.3125 64.25 C 94.081939 59.352464 93.396879 55.101301 92.28125 51.53125 C 90.87501 47.03134 88.90627 43.4376 86.375 40.71875 C 83.84377 37.95323 80.82815 35.98448 77.3125 34.8125 C 73.75003 33.59386 69.82816 32.96885 65.5625 32.96875 z M 98.4375 35 C 97.40623 35.0001 96.40623 35.23447 95.46875 35.65625 C 94.57811 36.03134 93.79686 36.54697 93.09375 37.25 C 92.39061 37.95322 91.82811 38.78134 91.40625 39.71875 C 91.03124 40.65634 90.84374 41.65634 90.84375 42.6875 C 90.84374 43.71883 91.03124 44.68759 91.40625 45.625 C 91.82811 46.51571 92.39061 47.32821 93.09375 48.03125 C 93.79686 48.73445 94.57811 49.29695 95.46875 49.71875 C 96.40623 50.09383 97.40623 50.28133 98.4375 50.28125 C 99.46873 50.28133 100.43747 50.09383 101.375 49.71875 C 102.31247 49.29695 103.1406 48.73445 103.84375 48.03125 C 104.54685 47.32821 105.09372 46.51571 105.46875 45.625 C 105.8906 44.68759 106.09373 43.71883 106.09375 42.6875 C 106.09373 41.65634 105.8906 40.65634 105.46875 39.71875 C 105.09372 38.78134 104.54685 37.95322 103.84375 37.25 C 103.1406 36.54697 102.31247 36.03134 101.375 35.65625 C 100.43747 35.23447 99.46873 35.0001 98.4375 35 z M 65.71875 38.59375 C 68.34378 38.59385 70.70316 39.0626 72.8125 40 C 74.9219 40.89072 76.71878 42.48447 78.21875 44.78125 C 79.6719 47.03134 80.7969 50.09384 81.59375 53.9375 C 82.34377 57.78133 82.71877 62.60945 82.71875 68.46875 L 82.71875 126.90625 C 80.2344 127.70313 77.50002 128.35938 74.5 128.875 C 71.45316 129.34375 68.25003 129.59376 64.875 129.59375 C 59.76566 129.59376 55.82817 127.75001 53.0625 124.09375 C 50.25005 120.43751 48.8438 114.7344 48.84375 107 C 48.8438 103.48441 49.23443 100.37503 50.03125 97.65625 C 50.7813 94.89066 52.01568 92.54692 53.75 90.625 C 55.43755 88.70317 57.65629 87.20317 60.375 86.125 C 63.09379 85.04692 66.39066 84.45318 70.28125 84.3125 L 70.28125 78.8125 C 66.95316 78.7188 64.14066 78.21881 61.84375 77.28125 C 59.50004 76.34381 57.60942 74.96881 56.15625 73.1875 C 54.70317 71.40631 53.6563 69.21882 53 66.59375 C 52.3438 63.92195 52.00005 60.8282 52 57.3125 C 52.00005 54.50008 52.2813 51.92196 52.84375 49.625 C 53.35942 47.32821 54.18755 45.35947 55.3125 43.71875 C 56.39067 42.07822 57.79692 40.82822 59.53125 39.9375 C 61.26566 39.04697 63.32816 38.59385 65.71875 38.59375 z M 132.28125 38.59375 C 134.67184 38.59385 136.73434 39.04697 138.46875 39.9375 C 140.20308 40.82822 141.60933 42.07822 142.6875 43.71875 C 143.81245 45.35947 144.64058 47.32821 145.15625 49.625 C 145.7187 51.92196 145.99995 54.50008 146 57.3125 C 145.99995 60.8282 145.65619 63.92195 145 66.59375 C 144.3437 69.21882 143.29683 71.40631 141.84375 73.1875 C 140.39058 74.96881 138.49996 76.34381 136.15625 77.28125 C 133.85934 78.21881 131.04684 78.7188 127.71875 78.8125 L 127.71875 84.3125 C 131.60934 84.45318 134.90621 85.04692 137.625 86.125 C 140.34371 87.20317 142.56245 88.70317 144.25 90.625 C 145.98432 92.54692 147.2187 94.89066 147.96875 97.65625 C 148.76557 100.37503 149.1562 103.48441 149.15625 107 C 149.1562 114.7344 147.74995 120.43751 144.9375 124.09375 C 142.17183 127.75001 138.23433 129.59376 133.125 129.59375 C 129.74997 129.59376 126.54684 129.34375 123.5 128.875 C 121.0644 128.45639 118.81445 127.94774 116.71875 127.34375 L 116.71875 127.1875 L 115.65625 127.03125 C 115.53205 126.9925 115.40419 126.94568 115.28125 126.90625 L 115.28125 68.46875 C 115.28123 62.60945 115.65623 57.78133 116.40625 53.9375 C 117.2031 50.09384 118.3281 47.03134 119.78125 44.78125 C 121.28122 42.48447 123.0781 40.89072 125.1875 40 C 127.29684 39.0626 129.65622 38.59385 132.28125 38.59375 z "
         transform="translate(278.31427,410.59064)"
         id="path2852" />
  </g>
</svg>
