<svg version="1" xmlns="http://www.w3.org/2000/svg" width="682.667" height="682.667" viewBox="0 0 512.000000 512.000000"><path d="M152 86.4c-24.7 5.3-40.4 19.6-46.7 42.7-2.3 8.5-2.2 28.7.2 37.9 5 19.3 19.6 35 37.8 41 4.6 1.4 4 2.3-2.8 3.9-2.7.7-9.2 3.2-14.3 5.7-15.7 7.6-25.2 19.5-29.9 37.4-2.7 10.4-2.4 35 .6 46 7 26.3 22.7 42.1 47.8 48.1 17.1 4.1 43.6 2.1 61.8-4.5l6.5-2.4V427h32v-90h22v90h32v-84.8l6.5 2.4c18.2 6.6 44.7 8.6 61.8 4.5 25.1-6 40.8-21.8 47.8-48.1 3-11 3.3-35.6.6-46-4.7-17.9-14.2-29.8-29.9-37.4-5.1-2.5-11.5-5-14.3-5.7-6.8-1.6-7.4-2.5-2.8-3.9 18.2-6 32.8-21.7 37.8-41 2.4-9.2 2.5-29.4.2-37.9-5.8-21.5-20.5-35.8-42.7-41.8-9.2-2.5-34.7-2.5-44.5.1-15.8 4.1-28.3 12.6-36.6 24.7-7.4 10.9-13 28.8-14.4 45.6l-.7 8.3h-23.6l-.7-8.3c-1.4-16.8-7-34.7-14.4-45.6-8.2-12-20.8-20.6-36.1-24.6-8.9-2.3-32.4-2.9-41-1.1zm25.3 14.6c15.4 2.3 25.8 12.3 31.1 30 4.2 13.9 4.6 23.4 4.6 112.1v84.8l-5.3 1.5c-10 2.9-24.3 4.8-36.7 4.8-10.5.1-13.4-.3-18.1-2.1-9.8-3.8-17.4-12-21.4-23.1-6.3-17.5-5.7-50.9 1.1-64.2 7.6-15.1 21.5-23.6 41.4-25.6l7.5-.7.3-7.8.3-7.7h-3.8c-6.3 0-17.1-2.7-22.4-5.7-6.3-3.4-12.4-10.1-15.5-17-5-11.2-6.9-34.2-3.9-48.5 3.8-17.9 12.9-28.5 26.4-30.8 6.4-1.1 6.8-1.1 14.4 0zm178.7 2.1c16.8 7.3 24.7 33.1 19.4 63.2-2.6 15.4-8.9 25.4-19.3 31-5.3 3-16.1 5.7-22.4 5.7h-3.8l.3 7.7.3 7.8 7.5.7c19.9 2 33.8 10.5 41.4 25.6 3.2 6.2 5.6 20 5.6 32.2 0 35.3-11.4 54.1-34.9 57.1-11.4 1.4-32.3-1-48.8-5.7l-2.3-.6v-84.7c0-88.7.4-98.2 4.6-112.1 5.1-17.2 15.7-27.7 30.2-30 7.6-1.1 16.7-.3 22.2 2.1z"/><path d="M248.5 91.2c-8.6 3-13.5 10.1-13.5 19.6 0 10.7 7.3 18.3 18.4 19 10.2.6 18-5 20.7-15.1 3.8-14.2-11.6-28.4-25.6-23.5z"/></svg>